# xmcd CD database file
#
# Track frame offsets:
#	150
#	19962
#	38282
#	54462
#	70237
#	94997
#	114065
#	131022
#	156922
#	175450
#
# Disc length: 2628 seconds
#
# Revision: 2
# Processed by: cddbd v1.5.2PL0 Copyright (c) Steve Scherf et al.
# Submitted via: CDex 1.60beta1
#
DISCID=7e0a420a
DTITLE=斉藤和義 - 黒盤
DYEAR=2006
DGENRE=Blues
TTITLE0=ウナナナ
TTITLE1=劇的な瞬間
TTITLE2=砂漠に赤い花
TTITLE3=歩いて帰ろう
TTITLE4=ドライブ
TTITLE5=COLD TUBE(ANOTHER MIX)
TTITLE6=Mojo Life
TTITLE7=ジレンマ
TTITLE8=ささくれ
TTITLE9=わすれもの
EXTD=YEAR: 2006
EXTT0=
EXTT1=
EXTT2=
EXTT3=
EXTT4=
EXTT5=
EXTT6=
EXTT7=
EXTT8=
EXTT9=
PLAYORDER=
